REM DIRINDEX 1\2\4,1\2\5,1\2\6,1\3\7,1\3\8,1\3\9,1\3\10
REM DIRNAME cjc057,folder01,folder02,folder03,folder04,folder05,folder06,folder07,folder08,folder09
TITLE ""
FILE "a_231.mp3" MP3
  TRACK 01 AUDIO
    TITLE "0:"
    INDEX 01 00:00:00
  TRACK 02 AUDIO
    TITLE "4:cjc057_04576"
    INDEX 01 00:00:09
  TRACK 03 AUDIO
    TITLE "0:"
    INDEX 01 00:01:40
  TRACK 04 AUDIO
    TITLE "5:cjc057_04577"
    INDEX 01 00:01:71
  TRACK 05 AUDIO
    TITLE "0:"
    INDEX 01 00:04:48
  TRACK 06 AUDIO
    TITLE "4:cjc057_04578"
    INDEX 01 00:05:56
  TRACK 07 AUDIO
    TITLE "0:"
    INDEX 01 00:07:07
  TRACK 08 AUDIO
    TITLE "5:cjc057_04579"
    INDEX 01 00:07:39
  TRACK 09 AUDIO
    TITLE "0:"
    INDEX 01 00:10:31
  TRACK 10 AUDIO
    TITLE "4:cjc057_04580"
    INDEX 01 00:11:35
  TRACK 11 AUDIO
    TITLE "0:"
    INDEX 01 00:12:67
  TRACK 12 AUDIO
    TITLE "5:cjc057_04581"
    INDEX 01 00:13:26
  TRACK 13 AUDIO
    TITLE "0:"
    INDEX 01 00:16:00
  TRACK 14 AUDIO
    TITLE "4:cjc057_04582"
    INDEX 01 00:17:06
  TRACK 15 AUDIO
    TITLE "0:"
    INDEX 01 00:18:37
  TRACK 16 AUDIO
    TITLE "5:cjc057_04583"
    INDEX 01 00:18:68
  TRACK 17 AUDIO
    TITLE "0:"
    INDEX 01 00:21:39
  TRACK 18 AUDIO
    TITLE "4:cjc057_04584"
    INDEX 01 00:22:46
  TRACK 19 AUDIO
    TITLE "0:"
    INDEX 01 00:23:71
  TRACK 20 AUDIO
    TITLE "5:cjc057_04585"
    INDEX 01 00:24:27
  TRACK 21 AUDIO
    TITLE "0:"
    INDEX 01 00:25:35
  TRACK 22 AUDIO
    TITLE "4:cjc057_04586"
    INDEX 01 00:26:40
  TRACK 23 AUDIO
    TITLE "0:"
    INDEX 01 00:27:67
  TRACK 24 AUDIO
    TITLE "5:cjc057_04587"
    INDEX 01 00:28:23
  TRACK 25 AUDIO
    TITLE "0:"
    INDEX 01 00:29:42
  TRACK 26 AUDIO
    TITLE "4:cjc057_04588"
    INDEX 01 00:30:50
  TRACK 27 AUDIO
    TITLE "0:"
    INDEX 01 00:31:65
  TRACK 28 AUDIO
    TITLE "5:cjc057_04589"
    INDEX 01 00:32:21
  TRACK 29 AUDIO
    TITLE "0:"
    INDEX 01 00:34:34
  TRACK 30 AUDIO
    TITLE "4:cjc057_04590"
    INDEX 01 00:35:37
  TRACK 31 AUDIO
    TITLE "0:"
    INDEX 01 00:36:46
  TRACK 32 AUDIO
    TITLE "5:cjc057_04591"
    INDEX 01 00:37:03
  TRACK 33 AUDIO
    TITLE "0:"
    INDEX 01 00:39:21
  TRACK 34 AUDIO
    TITLE "4:cjc057_04592"
    INDEX 01 00:40:28
  TRACK 35 AUDIO
    TITLE "0:"
    INDEX 01 00:41:36
  TRACK 36 AUDIO
    TITLE "5:cjc057_04593"
    INDEX 01 00:41:67
  TRACK 37 AUDIO
    TITLE "0:"
    INDEX 01 00:44:38
  TRACK 38 AUDIO
    TITLE "4:cjc057_04594"
    INDEX 01 00:45:39
  TRACK 39 AUDIO
    TITLE "0:"
    INDEX 01 00:47:01
  TRACK 40 AUDIO
    TITLE "5:cjc057_04595"
    INDEX 01 00:47:32
  TRACK 41 AUDIO
    TITLE "0:"
    INDEX 01 00:49:33
  TRACK 42 AUDIO
    TITLE "4:cjc057_04596"
    INDEX 01 00:50:39
  TRACK 43 AUDIO
    TITLE "0:"
    INDEX 01 00:51:48
  TRACK 44 AUDIO
    TITLE "5:cjc057_04597"
    INDEX 01 00:52:04
  TRACK 45 AUDIO
    TITLE "0:"
    INDEX 01 00:55:04
  TRACK 46 AUDIO
    TITLE "4:cjc057_04598"
    INDEX 01 00:56:08
  TRACK 47 AUDIO
    TITLE "0:"
    INDEX 01 00:57:17
  TRACK 48 AUDIO
    TITLE "5:cjc057_04599"
    INDEX 01 00:57:46
  TRACK 49 AUDIO
    TITLE "0:"
    INDEX 01 01:00:62
  TRACK 50 AUDIO
    TITLE "4:cjc057_04600"
    INDEX 01 01:01:66
  TRACK 51 AUDIO
    TITLE "0:"
    INDEX 01 01:03:00
  TRACK 52 AUDIO
    TITLE "5:cjc057_04601"
    INDEX 01 01:03:31
  TRACK 53 AUDIO
    TITLE "0:"
    INDEX 01 01:05:40
  TRACK 54 AUDIO
    TITLE "4:cjc057_04602"
    INDEX 01 01:06:43
  TRACK 55 AUDIO
    TITLE "0:"
    INDEX 01 01:07:59
  TRACK 56 AUDIO
    TITLE "5:cjc057_04603"
    INDEX 01 01:08:17
  TRACK 57 AUDIO
    TITLE "0:"
    INDEX 01 01:10:30
  TRACK 58 AUDIO
    TITLE "4:cjc057_04604"
    INDEX 01 01:11:35
  TRACK 59 AUDIO
    TITLE "0:"
    INDEX 01 01:12:64
  TRACK 60 AUDIO
    TITLE "5:cjc057_04605"
    INDEX 01 01:13:20
  TRACK 61 AUDIO
    TITLE "0:"
    INDEX 01 01:15:11
